<svg width="36" height="37" viewBox="0 0 36 37" fill="none" xmlns="http://www.w3.org/2000/svg">
<path fill-rule="evenodd" clip-rule="evenodd" d="M18 35C27.1127 35 34.5 27.6127 34.5 18.5C34.5 9.3873 27.1127 2 18 2C8.8873 2 1.5 9.3873 1.5 18.5C1.5 27.6127 8.8873 35 18 35ZM18 36.5C27.9411 36.5 36 28.4411 36 18.5C36 8.55887 27.9411 0.5 18 0.5C8.05887 0.5 0 8.55887 0 18.5C0 28.4411 8.05887 36.5 18 36.5Z" fill="white"/>
<path d="M17.8727 27.1384C16.2923 27.1384 14.7119 27.233 13.2245 27.1384C11.0864 26.9492 10.2497 26.1922 9.87788 23.9213C9.41307 21.272 9.22715 18.7173 9.50604 16.068C9.599 15.1218 9.69196 14.0809 9.87788 13.1347C10.1568 11.1477 10.9934 10.2962 12.9457 9.82307C13.7823 9.63383 14.526 9.5392 15.3627 9.63382C17.129 9.72844 18.8953 9.72843 20.6616 9.53919C21.4982 9.44457 22.2419 9.5392 23.0786 9.63382C24.6589 9.82306 25.7745 10.6746 25.9604 12.2832C26.5182 16.2572 26.983 20.2312 26.2393 24.2052C25.8675 26.0976 25.0308 26.8545 23.1715 27.233C21.4982 27.3276 19.7319 27.233 17.8727 27.1384ZM18.2445 14.4594C16.1064 14.3648 14.2471 15.9733 14.0612 17.9603C13.8753 20.4204 15.3627 22.029 17.8727 22.2182C19.8249 22.3128 21.6842 20.6097 21.8701 18.4334C22.056 16.4464 20.3827 14.554 18.2445 14.4594ZM24.0082 12.9455C23.9152 12.3778 23.6364 11.9993 22.9856 11.9993C22.2419 11.9993 21.8701 12.4724 21.8701 13.1347C21.8701 13.7971 22.2419 14.2702 22.9856 14.2702C23.7293 14.1755 24.0082 13.7024 24.0082 12.9455Z" fill="white"/>
</svg>
