<svg width="36" height="37" viewBox="0 0 36 37" fill="none" xmlns="http://www.w3.org/2000/svg">
<path fill-rule="evenodd" clip-rule="evenodd" d="M18 35C27.1127 35 34.5 27.6127 34.5 18.5C34.5 9.3873 27.1127 2 18 2C8.8873 2 1.5 9.3873 1.5 18.5C1.5 27.6127 8.8873 35 18 35ZM18 36.5C27.9411 36.5 36 28.4411 36 18.5C36 8.55887 27.9411 0.5 18 0.5C8.05887 0.5 0 8.55887 0 18.5C0 28.4411 8.05887 36.5 18 36.5Z" fill="white"/>
<path d="M15.5432 20.9366C15.5432 19.5661 15.5432 18.2936 15.5432 16.9231C15.6411 15.1611 16.62 14.2801 18.1862 14.9653C18.9693 15.259 19.4588 15.3569 20.0461 15.0632C21.5144 14.2801 22.787 14.8674 24.1574 15.3569C25.0384 15.6506 25.5279 16.3358 25.8215 17.2168C26.6047 19.7619 26.6047 22.307 26.5068 24.8521C26.5068 25.5374 26.2131 26.0268 25.43 26.1247C25.2342 26.1247 25.1363 26.1247 24.9405 26.2226C22.1997 26.712 21.906 26.5162 22.1996 23.7753C22.2975 22.6007 22.4933 21.426 22.1996 20.2513C22.0039 19.664 21.8081 18.9788 21.025 18.8809C20.3398 18.783 19.8503 19.2725 19.4588 19.7619C19.0672 20.2513 18.9693 20.8387 18.9693 21.5239C18.9693 22.5028 18.9693 23.3838 18.9693 24.3627C18.9693 26.3205 18.8714 26.4184 17.1094 26.3205C15.4453 26.3205 15.4453 26.3205 15.4453 24.6563C15.5432 23.4817 15.5432 22.2091 15.5432 20.9366Z" fill="white"/>
<path d="M10.1604 20.7406C10.1604 19.3701 10.1604 18.0976 10.1604 16.7271C10.1604 15.5525 10.8456 15.3567 11.8245 15.2588C12.9013 15.2588 13.0971 15.8461 13.0971 16.7271C13.2928 19.2722 13.2928 21.8174 13.195 24.3625C13.195 25.2435 13.195 26.3203 11.8245 26.3203C10.6499 26.4181 10.0625 25.9287 10.0625 24.754C10.0625 23.3836 10.0625 21.9152 10.0625 20.5448C10.0625 20.7406 10.1604 20.7406 10.1604 20.7406Z" fill="white"/>
<path d="M11.0391 9.875C12.5074 9.875 13.2906 10.4623 13.2906 11.3433C13.2906 12.4201 12.018 13.6927 11.0391 13.6927C10.0602 13.6927 9.375 12.9096 9.375 11.8328C9.47289 10.5602 10.0602 9.875 11.0391 9.875Z" fill="white"/>
</svg>
