<svg width="36" height="37" viewBox="0 0 36 37" fill="none" xmlns="http://www.w3.org/2000/svg">
<path d="M7.125 19.6148C9.20039 18.2941 10.7098 17.3507 12.3135 16.4074C16.0869 14.332 19.766 12.2566 23.4451 9.99252C24.8602 9.1435 25.2375 9.33214 25.2375 11.0302C25.1432 12.2566 24.9545 13.3886 24.7658 14.615C24.1998 18.1054 23.5395 21.5959 22.9735 25.0863C22.7848 26.124 22.4074 26.407 21.4641 25.841C20.9924 25.558 20.5207 25.4636 20.049 25.2749C17.5963 24.2372 17.3133 24.2372 15.5209 26.2183C15.1436 26.5956 15.0492 27.1617 14.2945 27.256C14.0115 25.4636 13.6342 23.8599 14.9549 22.2562C16.2756 20.5582 17.502 18.9544 18.917 17.2564C19.2944 16.7847 19.5774 16.313 19.766 15.747C17.5963 17.162 15.4266 18.6714 13.6342 20.5581C12.9738 21.3128 12.4078 21.4072 11.4645 21.0298C10.2381 20.5581 8.91738 20.1808 7.125 19.6148Z" fill="white"/>
<path fill-rule="evenodd" clip-rule="evenodd" d="M18 35C27.1127 35 34.5 27.6127 34.5 18.5C34.5 9.3873 27.1127 2 18 2C8.8873 2 1.5 9.3873 1.5 18.5C1.5 27.6127 8.8873 35 18 35ZM18 36.5C27.9411 36.5 36 28.4411 36 18.5C36 8.55887 27.9411 0.5 18 0.5C8.05887 0.5 0 8.55887 0 18.5C0 28.4411 8.05887 36.5 18 36.5Z" fill="white"/>
</svg>
